<svg width="75" height="63" viewBox="0 0 75 63" fill="none" xmlns="http://www.w3.org/2000/svg">
<g clip-path="url(#clip0_408_621)">
<path d="M73.5609 38.8326L70.8897 38.2129C70.6842 36.767 70.4787 35.3211 70.0677 33.8752L72.328 32.2228C73.1499 31.8096 73.1499 30.7769 72.739 29.9506L68.6294 23.9605C68.4239 23.5474 68.013 23.3408 67.602 23.3408C67.191 23.3408 66.7801 23.3408 66.3691 23.5473L64.1088 25.1998C62.876 24.167 61.6431 23.3408 60.4102 22.7211L61.0267 20.0359C61.2321 19.2096 60.6157 18.3834 59.7938 18.1769L52.8075 16.731C52.3965 16.731 51.9856 16.731 51.5746 16.9375C51.1636 17.1441 50.9582 17.5572 50.9582 17.9703L50.3417 20.6555C48.9034 20.8621 47.465 21.0687 46.0267 21.4818L44.3828 19.2096C44.1773 18.7965 43.7664 18.59 43.3554 18.59C42.9445 18.59 42.5335 18.59 42.1226 18.7965L36.1636 22.9277C35.7527 23.1342 35.5472 23.5474 35.5472 23.9605C35.5472 24.3736 35.5472 24.7867 35.7527 25.1998L37.3965 27.4719C36.3691 28.7113 35.5472 29.9506 34.9308 31.19L32.2595 30.5703C31.8486 30.5703 31.4376 30.5703 31.0267 30.7769C30.6157 30.9834 30.4102 31.3965 30.4102 31.8096L28.7664 39.2457C28.5609 40.0719 29.1773 40.8982 29.9993 41.1047L32.6705 41.7244C32.876 43.1703 33.0815 44.6162 33.4924 46.0621L31.4376 47.508C31.0267 47.7146 30.8212 48.1277 30.8212 48.5408C30.8212 48.9539 30.8212 49.367 31.0267 49.7801L35.1363 55.7703C35.3417 56.1834 35.7527 56.39 36.1636 56.39C36.5746 56.39 36.9856 56.39 37.3965 56.1834L39.6568 54.531C40.8897 55.5637 42.1226 56.39 43.3554 57.0096L42.739 59.9014C42.5335 60.7277 43.1499 61.5539 43.9719 61.7605L50.9582 63.2064H51.1636C51.9856 63.2064 52.602 62.5867 52.8075 61.967L53.4239 59.2818C54.8623 59.0752 56.3006 58.8687 57.739 58.4555L59.3828 60.7277C59.5883 61.1408 59.9993 61.3474 60.4102 61.3474C60.8212 61.3474 61.2321 61.3473 61.6431 61.1408L67.602 57.0096C68.4239 56.5965 68.4239 55.5637 68.013 54.7375L66.3691 52.4654C67.3965 51.226 68.2184 49.9867 68.8349 48.7473L71.5061 49.367C72.328 49.5736 73.1499 48.9539 73.3554 48.1277L74.7938 41.1047C74.7938 40.6916 74.7938 40.2785 74.5883 39.8654C74.3828 39.0392 73.9719 38.8326 73.5609 38.8326ZM70.6842 45.649L68.2184 45.2359C67.3965 45.0293 66.7801 45.4424 66.3691 46.2687C65.5472 48.1277 64.5198 49.7801 63.0815 51.226C62.465 51.8457 62.465 52.6719 62.876 53.2916L64.3143 55.3572L61.0267 57.6293L59.5883 55.5637C59.1773 54.9441 58.3554 54.7375 57.739 54.9441C55.8897 55.7703 54.0404 56.1834 51.9856 56.1834C51.1636 56.1834 50.5472 56.8031 50.3417 57.4228L49.9308 59.9014L46.0267 59.0752L46.4376 56.5965C46.6431 55.7703 46.2321 55.1506 45.4102 54.7375C43.5609 53.9113 41.9171 52.8785 40.4787 51.4326C39.8623 50.8129 39.0404 50.8129 38.4239 51.226L36.3691 52.6719L34.1089 49.367L36.1636 47.9211C36.7801 47.508 36.9856 46.6818 36.7801 46.0621C35.9582 44.2031 35.5472 42.3441 35.5472 40.2785C35.5472 39.4523 34.9308 38.8326 34.3143 38.626L31.8486 38.2129L32.6705 34.2883L35.1363 34.7014C35.9582 34.908 36.5746 34.4949 36.9856 33.6687C37.8075 31.8096 38.8349 30.1572 40.2732 28.7113C40.8897 28.0916 40.8897 27.2654 40.4787 26.6457L39.0404 24.5801L42.328 22.308L43.7664 24.3736C44.1773 24.9933 44.9993 25.1998 45.6157 24.9933C47.465 24.167 49.3143 23.7539 51.3691 23.7539C52.191 23.7539 52.8075 23.1342 53.013 22.5146L53.4239 20.0359L57.328 20.8621L56.9171 23.3408C56.7116 24.167 57.1226 24.7867 57.9445 25.1998C59.7938 26.026 61.4376 27.0588 62.876 28.5047C63.4924 29.1244 64.3143 29.1244 64.9308 28.7113L66.9856 27.2654L69.2458 30.5703L67.191 32.0162C66.5746 32.4293 66.3691 33.2555 66.5746 33.8752C67.3965 35.7342 67.8075 37.5933 67.8075 39.6588C67.8075 40.4851 68.4239 41.1047 69.0404 41.3113L71.5061 41.7244L70.6842 45.649Z" fill="#575756"/>
<path d="M54.0405 28.5048C50.9583 27.8852 47.8761 28.5048 45.4103 30.3639C42.9446 32.0163 41.0952 34.7016 40.6843 37.7999C40.0679 40.8983 40.6843 43.9966 42.5336 46.4753C44.1774 48.954 46.8487 50.813 49.9309 51.2261C50.7528 51.4327 51.3692 51.4327 51.9857 51.4327C57.3281 51.4327 62.2596 47.5081 63.287 42.1376C64.3144 35.7343 60.2048 29.7442 54.0405 28.5048ZM59.9994 41.518C59.5884 43.7901 58.3555 45.6491 56.5062 46.8884C54.6569 48.1278 52.3966 48.5409 50.3418 48.1278C48.0815 47.7147 46.2322 46.4753 44.9994 44.6163C43.7665 42.7573 43.3555 40.4852 43.7665 38.4196C44.1774 36.1475 45.4103 34.2884 47.2596 33.0491C48.698 32.0163 50.3418 31.6032 51.9857 31.6032C52.6021 31.6032 53.0131 31.6032 53.6295 31.8098C57.9446 32.636 60.8213 36.9737 59.9994 41.518Z" fill="#575756"/>
<path d="M15.411 31.8098L15.6164 33.8754C15.6164 34.2885 15.8219 34.4951 16.0274 34.7016C16.2329 34.9082 16.4384 34.9082 16.8493 34.9082H17.0548L22.3973 34.082C23.0137 34.082 23.4247 33.4623 23.4247 32.6361L23.2192 30.5705C24.2466 30.1574 25.274 29.5377 26.0959 28.918L27.7397 30.1574C28.3562 30.5705 28.9726 30.3639 29.3836 29.9508L32.6712 25.6131C33.0822 24.9934 32.8767 24.3738 32.4658 23.9607L30.8219 22.7213C31.2329 21.6885 31.4384 20.6557 31.6438 19.4164L33.6986 19.2098C34.1096 19.2098 34.3151 19.0033 34.5205 18.7967C34.726 18.5902 34.726 18.177 34.726 17.9705L33.9041 12.6C33.9041 11.9803 33.2877 11.5672 32.4658 11.5672L30.411 11.7738C30 10.741 29.3836 9.7082 28.7671 8.88197L30 7.22951C30.2055 7.02295 30.2055 6.60984 30.2055 6.40328C30.2055 5.99016 30 5.78361 29.7945 5.57705L25.4794 2.06557C25.274 1.85902 24.863 1.85902 24.6575 1.85902C24.2466 1.85902 24.0411 2.06557 23.8356 2.27213L22.6027 3.92459C21.5753 3.51148 20.5479 3.30492 19.3151 3.09836L19.1096 1.03279C18.9041 0.413115 18.2877 0 17.4658 0L12.1233 0.82623C11.7123 0.82623 11.5068 1.03279 11.3014 1.23934C11.3014 1.4459 11.0959 1.85902 11.3014 2.06557L11.5068 4.13115C10.4795 4.54426 9.45205 5.16393 8.63014 5.78361L6.9863 4.75082C6.78082 4.54426 6.36986 4.3377 5.9589 4.54426C5.54795 4.54426 5.34247 4.75082 5.13699 4.95738L2.05479 9.29508C1.84931 9.50164 1.64384 9.91475 1.84931 10.1213C1.84931 10.5344 2.05479 10.741 2.26027 10.9475L3.90411 12.1869C3.49315 13.2197 3.28767 14.459 3.08219 15.4918L1.0274 15.6984C0.616438 15.6984 0.410959 15.9049 0.205479 16.1115C0 16.5246 0 16.9377 0 17.1443L0.821918 22.5148C0.821918 23.1344 1.43836 23.5475 2.26027 23.5475L4.31507 23.341C4.72603 24.3738 5.34247 25.4066 5.9589 26.2328L4.72603 27.8852C4.52055 28.0918 4.52055 28.5049 4.52055 28.7115C4.52055 29.1246 4.72603 29.3311 4.93151 29.5377L9.24657 32.8426C9.86301 33.2557 10.4795 33.0492 10.8904 32.6361L12.1233 30.9836C13.1507 31.1902 14.3836 31.6033 15.411 31.8098ZM10.8904 28.7115L9.86301 30.1574L7.39726 28.2984L8.42466 26.8525C8.83562 26.4393 8.83562 25.8197 8.42466 25.4066C7.39726 24.3738 6.57534 22.9279 6.16438 21.6885C5.9589 21.0689 5.34246 20.6557 4.72603 20.6557L2.87671 20.8623L2.46575 17.9705L4.31507 17.7639C4.93151 17.7639 5.34246 17.1443 5.34246 16.7311C5.34246 15.2852 5.75342 13.8393 6.36986 12.3934C6.57534 11.7738 6.36986 11.3607 5.9589 10.9475L4.72603 9.7082L6.57534 7.22951L8.0137 8.26229C8.42466 8.67541 9.04109 8.67541 9.45205 8.26229C10.4795 7.43607 11.9178 6.60984 13.1507 6.19672C13.7671 5.99016 13.9726 5.37049 13.9726 4.95738L13.7671 3.09836L16.6438 2.68525L16.8493 4.54426C16.8493 5.16393 17.4658 5.57705 17.8767 5.57705C19.3151 5.57705 20.7534 5.99016 22.1918 6.60984C22.8082 6.81639 23.2192 6.60984 23.6301 6.19672L24.6575 4.75082L27.1233 6.60984L26.0959 8.05574C25.6849 8.46885 25.6849 9.08852 26.0959 9.50164C27.1233 10.5344 27.9452 11.9803 28.3562 13.2197C28.5616 13.8393 29.1781 14.0459 29.589 14.0459L31.4384 13.8393L31.8493 16.7311L30 16.9377C29.3836 16.9377 28.9726 17.5574 28.9726 17.9705C28.9726 19.4164 28.5616 20.8623 27.9452 22.3082C27.7397 22.9279 27.9452 23.341 28.3562 23.7541L29.7945 24.7869L27.9452 27.2656L26.7123 26.4393C26.3014 26.0262 25.6849 26.0262 25.274 26.4393C24.2466 27.4721 22.8082 28.2984 21.5753 28.7115C20.9589 28.918 20.5479 29.5377 20.5479 29.9508L20.7534 31.8098L17.8767 32.2229L17.6712 30.3639C17.6712 29.7443 17.0548 29.3311 16.6438 29.3311C15.2055 29.3311 13.7671 28.918 12.3288 28.2984C12.1233 28.2984 11.9178 28.0918 11.9178 28.0918C11.3014 28.0918 11.0959 28.2984 10.8904 28.7115Z" fill="#575756"/>
<path d="M18.4926 26.0261C23.2186 25.4064 26.5063 20.8621 25.8899 16.1113C25.2734 11.3605 20.7529 8.05556 16.0269 8.67524C11.3008 9.50147 8.01316 13.8392 8.83508 18.59C9.45152 22.9277 13.1502 26.0261 17.4652 26.0261C17.6707 26.0261 18.0817 26.0261 18.4926 26.0261ZM11.0954 18.3834C10.6844 14.872 12.9447 11.7736 16.4378 11.1539C16.6433 11.1539 17.0543 11.1539 17.2597 11.1539C20.3419 11.1539 23.0132 13.4261 23.4241 16.5244C23.8351 20.0359 21.5748 23.1343 18.0817 23.5474C14.794 24.167 11.7118 21.6884 11.0954 18.3834Z" fill="#575756"/>
</g>
<defs>
<clipPath id="clip0_408_621">
<rect width="75" height="63" fill="white"/>
</clipPath>
</defs>
</svg>
