<svg width="77" height="71" viewBox="0 0 77 71" fill="none" xmlns="http://www.w3.org/2000/svg">
<g clip-path="url(#clip0_408_602)">
<path d="M71.7439 13.1987C71.7439 12.9712 71.5154 12.9712 71.5154 12.7436C71.0585 12.2885 70.1445 12.0609 69.4591 12.0609C68.7736 12.2885 68.0881 12.7436 67.8597 13.6538C67.6312 14.3365 67.4027 14.7917 66.9457 15.2468C66.0318 16.1571 64.6608 16.3846 63.5184 15.9295C62.1475 15.4744 61.2335 14.3365 61.0051 12.7436V12.516C61.462 10.6955 62.376 9.55769 63.9754 9.33013C64.6608 9.10256 65.3463 8.64744 65.5748 7.96474C65.8033 7.28205 65.5748 6.59936 65.1178 5.91667L60.0911 0.682692C59.8626 0.227564 59.4056 0.227564 59.1772 0H58.9487C58.4917 0 58.0347 0.227564 57.5778 0.455128L52.7795 4.77885C52.5511 4.09615 52.0941 3.64103 51.6371 2.95833C49.3522 0.682692 45.6965 0.455128 43.1831 2.50321C40.8982 4.77885 40.6697 8.41987 42.9546 10.9231C43.4116 11.3782 43.8686 11.8333 44.554 12.2885L39.9843 16.6122L39.7558 16.8397C39.5273 17.0673 39.2988 17.5224 39.2988 17.75V17.9776C39.2988 18.4327 39.5273 18.6603 39.7558 19.1154L44.554 24.5769C45.011 25.0321 45.6965 25.2596 46.6104 25.2596C47.2959 25.0321 47.9813 24.5769 48.2098 23.8942C48.6668 22.5288 49.8092 21.391 51.6371 21.1635H51.8656C53.465 21.6186 54.6074 22.5288 55.0644 23.8942C55.2929 25.2596 55.0644 26.3974 53.922 27.3077C53.465 27.7628 52.7795 27.9904 52.0941 28.2179C51.4086 28.4455 50.7232 28.9006 50.4947 29.5833C50.2662 30.266 50.4947 30.9487 50.9516 31.6314L51.1801 31.859L55.9783 36.8654C56.2068 37.3205 56.6638 37.5481 57.1208 37.5481C57.1208 37.5481 57.1208 37.5481 57.3493 37.5481H57.5778C57.8062 37.5481 58.0347 37.5481 58.2632 37.3205C58.2632 37.3205 58.4917 37.0929 58.7202 37.0929L63.7469 32.5417L63.9754 32.3141C64.4324 31.859 64.4324 31.1763 64.2039 30.4936C63.9754 29.8109 63.5184 29.3558 63.0614 29.1282C62.6045 28.9006 62.1475 28.6731 61.6905 28.2179C61.0051 27.5353 60.7766 26.625 60.7766 25.7147C60.7766 24.8045 61.2335 23.8942 61.919 23.2115C62.6045 22.5288 63.5184 22.0737 64.4324 22.0737C65.3463 22.0737 66.2602 22.5288 66.9457 23.2115C67.4027 23.6667 67.6312 24.1218 67.6312 24.5769C67.8597 25.2596 68.3166 25.7147 68.7736 25.9423C69.4591 26.1699 70.1445 26.1699 70.6015 25.7147C70.6015 25.7147 70.83 25.7147 70.83 25.4872L75.8567 20.7083C76.0852 20.4808 76.3137 20.0256 76.5421 19.7981V19.5705C76.5421 19.1154 76.3137 18.6603 76.0852 18.2051L71.7439 13.1987ZM70.1445 22.984C69.916 22.3013 69.4591 21.8462 69.0021 21.391C67.8597 20.2532 66.2602 19.5705 64.6608 19.5705C63.0614 19.5705 61.462 20.2532 60.3196 21.391C59.1772 22.5288 58.2632 23.8942 58.2632 25.4872C58.2632 27.0801 58.7202 28.6731 59.8626 30.0385C60.3196 30.4936 60.7766 30.9487 61.462 31.1763L57.5778 34.8173L53.465 30.4936C54.1505 30.266 55.0644 29.8109 55.5214 29.3558C57.1208 27.7628 57.8062 25.4872 57.3493 23.4391C56.6638 21.1635 54.8359 19.5705 52.3226 18.8878C51.8656 18.8878 51.6371 18.8878 51.1801 18.8878C48.6668 19.3429 46.8389 20.7083 45.9249 22.5288L42.0407 18.2051L46.6104 13.8814C46.8389 13.6538 47.0674 13.4263 47.0674 13.1987C47.2959 12.7436 47.2959 12.0609 47.2959 11.6058C47.0674 10.9231 46.6104 10.4679 46.1534 10.4679C45.6965 10.2404 45.2395 10.0128 44.7825 9.55769C43.4116 7.96474 43.6401 5.91667 44.7825 4.55128C46.1534 3.41346 48.4383 3.41346 49.5807 4.77885C50.0377 5.23397 50.2662 5.6891 50.2662 6.14423C50.4947 6.82692 50.9516 7.28205 51.4086 7.50961C51.8656 7.73718 52.5511 7.73718 53.008 7.50961C53.2365 7.50961 53.465 7.28205 53.6935 7.05449L58.4917 2.73077L62.376 7.05449C60.3196 7.73718 58.7202 9.55769 58.2632 12.0609C58.2632 12.516 58.2632 12.7436 58.2632 13.1987C58.7202 15.7019 60.0911 17.75 62.376 18.4327C64.4324 19.1154 66.9457 18.6603 68.5451 17.0673C69.2306 16.6122 69.6875 15.9295 69.916 15.0192L73.8003 19.3429L70.1445 22.984Z" fill="#575756"/>
<path d="M8.22466 68.9517C8.22466 70.0895 9.13861 70.9998 10.281 70.9998L33.8152 70.7722H34.0437C34.2721 70.7722 34.5006 70.9998 34.9576 70.9998H42.2692H42.4977C43.1831 70.7722 43.6401 70.5446 43.8686 69.862C44.0971 69.1793 44.0971 68.7241 43.8686 68.0414C43.4116 67.3587 42.9546 65.7658 44.3256 63.9453C44.3256 63.9453 44.3256 63.7177 44.554 63.7177C45.468 63.2626 46.1534 62.8075 47.0674 62.8075C48.8953 62.8075 50.4947 64.4004 50.4947 66.2209C50.4947 66.6761 50.2662 67.3587 50.0377 67.8139C49.8092 68.269 49.8092 68.9517 50.0377 69.6344C50.2662 70.3171 50.9517 70.5446 51.4086 70.7722H51.6371H58.4917C58.9487 70.7722 59.6342 70.5446 59.8626 70.0895C60.3196 69.6344 60.5481 69.1793 60.5481 68.7241V61.4421C60.5481 60.3043 59.6342 59.394 58.4917 59.394C58.0348 59.394 57.8063 59.6216 57.3493 59.6216C56.8923 60.0767 56.2069 60.0767 55.5214 60.0767C54.1505 60.0767 53.008 59.394 52.3226 58.2562C51.6371 57.1184 51.8656 55.5254 52.7796 54.16C52.7796 54.16 52.7796 53.9325 53.008 53.9325C53.922 53.4773 54.6075 53.0222 55.5214 53.0222C56.2069 53.0222 56.8923 53.2498 57.3493 53.4773C58.0348 53.9325 59.1772 53.9325 59.8626 53.2498C60.3196 52.7946 60.5481 52.3395 60.5481 51.8844V44.6023C60.5481 43.4645 59.6342 42.5543 58.4917 42.5543H52.3226C52.5511 41.8716 52.5511 41.1889 52.5511 40.5062C52.5511 37.3203 49.8092 34.5895 46.6104 34.5895C45.2395 34.5895 43.8686 35.0446 42.7261 35.9549C42.9546 35.7273 43.1831 35.4998 43.1831 35.0446C44.3256 32.9966 44.0971 30.4934 42.4977 28.4453C42.2692 28.2177 42.0407 27.7626 41.5837 27.535C39.7558 26.1696 37.471 25.9421 35.6431 26.6248V20.4805C35.6431 19.3427 34.7291 18.4325 33.5867 18.4325H27.4175C28.103 16.612 27.8745 14.3363 26.5036 12.5158C26.2751 12.2882 26.0466 11.8331 25.5896 11.6055C24.2187 11.378 23.0763 10.9229 21.7054 10.9229C20.106 10.9229 18.5066 11.6055 17.3641 12.7434C16.2217 13.8812 15.5362 15.4741 15.5362 17.0671C15.5362 17.7498 15.7647 18.4325 15.9932 19.1152H9.82407C9.13861 19.1152 8.68163 19.3427 8.22466 19.7979C7.99617 20.0254 7.76769 20.7081 7.76769 21.1632V28.4453V28.6729C7.99617 29.5831 8.91012 30.2658 9.82407 30.2658C10.0526 30.2658 10.5095 30.2658 10.738 30.0382C11.8804 29.3555 13.4799 29.5831 14.8508 30.4934C14.8508 30.4934 15.0793 30.4934 15.0793 30.7209C15.9932 32.0863 16.2217 33.4517 15.5362 34.8171C14.8508 35.9549 13.7083 36.6376 12.3374 36.6376C11.8804 36.6376 11.195 36.41 10.738 36.1825C10.5095 35.9549 10.0526 35.9549 9.82407 35.9549C8.91012 35.9549 7.99617 36.6376 7.76769 37.5478V37.7754V44.6023C7.76769 44.8299 7.76769 45.0575 7.99617 45.0575V50.9741C6.16828 50.2914 3.88341 50.519 2.05552 51.8844C1.82703 52.112 1.37006 52.3395 1.14157 52.7946C-0.229347 54.8427 -0.457833 57.3459 0.6846 59.394C1.82703 61.4421 3.88341 62.5799 5.93979 62.5799C6.62525 62.5799 7.31071 62.3523 7.99617 62.1248L8.22466 68.9517ZM43.1831 44.6023C43.6401 43.9196 43.6401 43.237 43.1831 42.5543C42.7261 41.8716 42.2692 40.2786 43.6401 38.4581C43.6401 38.4581 43.6401 38.2305 43.8686 38.2305C44.7825 37.7754 45.468 37.3203 46.3819 37.3203C48.2098 37.3203 49.8092 38.9132 49.8092 40.7337C49.8092 41.1889 49.5807 41.8716 49.3523 42.3267C49.1238 43.0094 49.1238 43.6921 49.3523 44.3748C49.8092 45.0575 50.4947 45.285 51.1802 45.285H57.5778V51.2017C55.5214 50.2914 53.2365 50.519 51.1802 51.8844C50.9517 52.112 50.4947 52.3395 50.2662 52.7946C48.8953 54.8427 48.6668 57.3459 49.8092 59.394C50.9517 61.4421 53.008 62.5799 55.0644 62.5799C55.9784 62.5799 56.6638 62.3523 57.5778 62.1248V68.0414H52.0941C52.3226 67.3587 52.3226 66.6761 52.3226 65.9934C52.3226 62.8075 49.5807 60.0767 46.3819 60.0767C45.011 60.0767 43.6401 60.5318 42.4977 61.4421C42.2692 61.6696 41.8122 61.8972 41.5837 62.3523C40.2128 64.1728 39.9843 66.2209 40.6698 68.269H34.7291V61.8972C34.7291 60.7594 33.8152 59.8491 32.6727 59.8491C32.4442 59.8491 31.9873 59.8491 31.7588 60.0767C31.3018 60.3043 30.6164 60.5318 30.1594 60.5318C28.7885 60.5318 27.646 59.8491 26.9606 58.7113C26.2751 57.5735 26.5036 55.9805 27.4175 54.6152C27.4175 54.6152 27.4175 54.3876 27.646 54.3876C29.0169 53.4773 30.3879 53.2498 31.7588 53.9325C32.4442 54.3876 33.5867 54.16 34.0437 53.4773C34.5006 53.0222 34.7291 52.5671 34.7291 52.1119V45.7402H41.1267C42.2692 45.7402 42.7261 45.285 43.1831 44.6023ZM40.6698 43.0094H35.6431V38.4581C36.3285 38.6857 37.014 38.6857 37.6994 38.6857C39.0704 38.6857 40.4413 38.2305 41.5837 37.3203C40.4413 39.1408 39.9843 41.1889 40.6698 43.0094ZM12.3374 39.1408C14.6223 39.1408 16.6787 37.7754 17.5926 35.9549C18.735 33.9068 18.5066 31.4036 16.9072 29.3555C16.6787 29.128 16.4502 28.6729 15.9932 28.4453C14.1653 27.0799 11.8804 26.8523 10.0526 27.535V21.6184H16.4502C17.1356 21.6184 17.8211 21.1632 18.2781 20.7081C18.735 20.0254 18.735 19.3427 18.2781 18.66C18.2781 18.2049 18.0496 17.5222 18.0496 17.0671C18.0496 16.1568 18.5066 15.2466 18.9635 14.5639C19.649 13.8812 20.5629 13.4261 21.4769 13.4261C22.3908 13.4261 23.0763 13.6536 23.9902 14.3363C23.9902 14.3363 24.2187 14.3363 24.2187 14.5639C25.1327 15.9293 25.3612 17.2946 24.6757 18.66C24.4472 19.3427 24.4472 20.0254 24.6757 20.7081C25.1327 21.3908 25.5896 21.6184 26.5036 21.6184H32.9012V27.9902C32.9012 29.128 33.8152 30.0382 34.9576 30.0382C35.1861 30.0382 35.6431 30.0382 35.8715 29.8107C37.014 29.128 38.6134 29.3555 39.9843 30.2658C39.9843 30.2658 40.2128 30.2658 40.2128 30.4934C41.1267 31.8587 41.3552 33.2241 40.6698 34.5895C39.9843 35.7273 38.8419 36.41 37.471 36.41C37.014 36.41 36.3285 36.1825 35.8715 35.9549C35.1861 35.4998 34.0437 35.7273 33.5867 36.41C33.1297 36.8652 32.9012 37.3203 32.9012 37.7754V43.6921C32.6727 43.6921 32.6727 43.9196 32.6727 44.1472C32.6727 44.1472 32.6727 44.3748 32.4442 44.3748H26.2751C26.0466 44.3748 25.8181 44.1472 25.5896 43.9196C25.3612 43.6921 25.3612 43.4645 25.5896 43.0094C26.7321 41.1889 26.5036 39.1408 25.1327 37.3203C24.9042 37.0927 24.9042 36.8652 24.6757 36.8652C23.7618 36.1825 22.6193 35.7273 21.4769 35.7273C20.106 35.7273 18.9635 36.1825 18.0496 37.0927C17.1356 38.003 16.6787 39.1408 16.6787 40.5062C16.6787 41.4164 16.9072 42.3267 17.3641 43.0094C17.5926 43.237 17.5926 43.4645 17.3641 43.9196C17.1356 44.1472 16.9072 44.3748 16.6787 44.3748H9.82407V38.9132C10.9665 39.1408 11.652 39.1408 12.3374 39.1408ZM5.93979 60.5318C4.56887 60.5318 3.42644 59.8491 2.74098 58.7113C2.28401 57.5735 2.51249 55.9805 3.42644 54.6152C3.42644 54.6152 3.42644 54.3876 3.65493 54.3876C5.02585 53.4773 6.39677 53.2498 7.76769 53.9325C8.45315 54.16 9.13861 54.16 9.82407 53.9325C10.5095 53.4773 10.738 52.7946 10.738 52.1119V46.878H17.3641C18.5066 46.878 19.649 46.1953 20.3345 45.0575C21.0199 43.9196 20.7914 42.7818 20.106 41.644C19.8775 41.1889 19.649 40.9613 19.649 40.5062C19.649 39.8235 19.8775 39.3684 20.3345 38.9132C21.2484 38.003 22.3908 38.003 23.5333 38.9132C23.9902 39.5959 24.4472 40.7337 23.7618 41.8716C23.0763 42.7818 23.0763 44.1472 23.7618 45.285C24.4472 46.4228 25.3612 46.878 26.7321 46.878H32.6727V51.6568C30.8448 50.9741 28.56 51.4293 26.7321 52.5671C26.5036 52.7946 26.0466 53.0222 25.8181 53.4773C24.4472 55.5254 24.2187 58.0286 25.3612 60.0767C26.5036 62.1248 28.56 63.2626 30.6164 63.2626C31.3018 63.2626 31.9873 63.035 32.6727 62.8075V68.269C32.6727 68.269 32.6727 68.4966 32.4442 68.4966L10.5095 68.7241V62.3523C10.5095 61.6696 10.0526 60.9869 9.59558 60.5318C8.91012 60.0767 8.22466 60.0767 7.5392 60.5318C7.08223 60.3043 6.62525 60.5318 5.93979 60.5318Z" fill="#575756"/>
</g>
<defs>
<clipPath id="clip0_408_602">
<rect width="77" height="71" fill="white"/>
</clipPath>
</defs>
</svg>
