<svg width="75" height="48" viewBox="0 0 75 48" fill="none" xmlns="http://www.w3.org/2000/svg">
<g clip-path="url(#clip0_408_612)">
<path d="M6.01866 43.2C9.49089 43.2 12.9631 43.2 16.4353 43.2C17.3613 43.2 18.2872 43.2 18.9816 43.2C32.4076 43.2 45.8335 43.2 59.0279 43.2C61.5742 43.2 63.889 43.2 66.4353 43.2C67.3613 43.2 68.0557 43.2 68.9816 43.2C69.2131 43.2 69.4446 43.2 69.4446 42.7429C69.4446 41.6 69.4446 40.4571 69.4446 39.3143C69.4446 27.4286 69.4446 15.3143 69.4446 3.42857C69.4446 2.97143 69.2131 2.28571 68.9816 1.82857C68.5187 0.685714 67.5927 0.228571 66.4353 0C65.5094 0 64.815 0 63.889 0C55.3242 0 46.2964 0 37.5001 0C28.4724 0 19.4446 0 10.4168 0C9.72237 0 9.02792 0 8.33348 0C8.102 0 7.63903 0.228571 7.40755 0.228571C6.01866 0.914286 5.32422 1.82857 5.32422 3.42857C5.32422 16.6857 5.32422 29.7143 5.32422 42.9714C5.32422 43.2 5.32422 43.2 6.01866 43.2ZM8.33348 4.11429C8.33348 3.42857 8.33348 3.2 9.2594 3.2C10.4168 3.2 11.5742 3.2 12.7316 3.2C20.602 3.2 53.0094 3.2 59.2594 3.2C60.4168 3.2 61.3427 3.2 62.5001 3.2C63.6576 3.2 64.815 3.2 65.9724 3.2C66.4353 3.2 66.4353 3.42857 66.4353 3.88571C66.4353 8 66.4353 11.8857 66.4353 16C66.4353 17.8286 66.4353 19.8857 66.4353 21.7143C66.4353 27.6571 66.4353 33.6 66.4353 39.5429C66.4353 40.2286 66.2038 40.2286 65.7409 40.2286C59.2594 40.2286 52.5464 40.2286 46.065 40.2286C37.2687 40.2286 28.7038 40.2286 19.9076 40.2286C16.4353 40.2286 12.7316 40.2286 9.2594 40.2286C8.56496 40.2286 8.56496 40.2286 8.56496 39.5429C8.56496 36.3429 8.56496 33.1429 8.56496 30.1714C8.33348 21.4857 8.33348 12.8 8.33348 4.11429Z" fill="#575756"/>
<path d="M74.3055 44.3429C71.9907 44.3429 69.4444 44.3429 67.1296 44.3429C66.2037 44.3429 65.0462 44.3429 64.1203 44.3429C59.4907 44.3429 54.8611 44.3429 50.2314 44.3429C48.3796 44.3429 46.5277 44.3429 44.6759 44.3429C43.9814 44.3429 43.9814 44.3429 43.9814 45.0286C43.9814 45.2572 43.75 45.4858 43.5185 45.7143C43.287 45.9429 42.824 45.9429 42.5925 45.9429C39.3518 45.9429 35.8796 45.9429 32.6388 45.9429C32.4074 45.9429 32.1759 45.9429 31.9444 45.9429C31.4814 45.7143 31.25 45.4858 31.25 45.0286C31.0185 44.3429 31.0185 44.3429 30.324 44.3429C25.9259 44.3429 21.5277 44.3429 17.1296 44.3429C15.9722 44.3429 14.8148 44.3429 13.8888 44.3429C9.4907 44.3429 5.09255 44.3429 0.694399 44.3429C0.231436 44.3429 -4.51803e-05 44.3429 0.231436 45.0286C0.231436 46.8572 1.62033 48 3.70366 48C5.55551 48 7.63884 48 9.49069 48C10.6481 48 11.8055 48 13.1944 48C20.8333 48 28.7037 48 36.3425 48C43.5185 48 50.9259 48 58.1018 48C58.7962 48 59.7222 48 60.4166 48C61.574 48 62.7314 48 63.8888 48C66.2037 48 68.75 48 71.0648 48C71.5277 48 71.9907 48 72.4537 47.7715C73.8425 47.5429 75 46.1715 75.2314 44.5715C75 44.3429 75 44.3429 74.3055 44.3429Z" fill="#575756"/>
<path d="M34.2583 28.3426C35.1842 26.7426 36.3417 25.1426 37.2676 23.7712C37.4991 23.9998 37.7305 23.9998 37.7305 24.2284C38.425 24.9141 39.1194 25.5998 39.8139 26.2855C40.5083 26.9712 41.2028 27.6569 41.8972 28.3426C42.1287 28.5712 42.1287 28.5712 42.3602 28.3426C43.0546 27.6569 43.7491 26.9712 44.4435 26.2855C42.8231 24.6855 41.2028 23.0855 39.5824 21.4855C41.2028 20.5712 42.8231 19.4284 44.4435 18.5141C44.4435 18.5141 44.4435 18.5141 44.4435 18.2855C40.0454 17.1426 35.4157 15.9998 31.0176 14.8569C31.712 19.6569 32.8694 23.9998 34.2583 28.3426C34.0268 28.3426 34.0268 28.3426 34.2583 28.3426Z" fill="#575756"/>
</g>
<defs>
<clipPath id="clip0_408_612">
<rect width="75" height="48" fill="white"/>
</clipPath>
</defs>
</svg>
