<svg width="196" height="40" viewBox="0 0 196 40" fill="none" xmlns="http://www.w3.org/2000/svg">
<path d="M48.7188 8.30273H53.3408C56.9635 8.30273 59.5868 10.8185 59.5868 14.2147C59.5868 17.4851 57.0884 20.1266 53.3408 20.1266H48.7188V8.30273ZM53.3408 17.7367C55.4645 17.7367 56.8386 16.3531 56.8386 14.2147C56.8386 12.0763 55.4645 10.6927 53.3408 10.6927H51.3421V17.8625H53.3408V17.7367Z" fill="white"/>
<path d="M66.832 8.30273H75.7014V10.5669H69.4554V12.9568H74.9519V15.221H69.4554V17.7367H75.8263V20.1266H66.9569V8.30273H66.832Z" fill="white"/>
<path d="M83.0723 8.30273H85.6956V13.46L90.4426 8.30273H93.5656L88.8186 13.3342L93.8154 20.1266H90.6924L87.0697 15.0952L85.6956 16.4788V20.1266H83.0723V8.30273Z" fill="white"/>
<path d="M104.307 8.17676H106.681L111.678 20.0007H108.929L107.805 17.3591H102.808L101.934 20.1264H99.3105L104.307 8.17676ZM107.056 15.095L105.557 11.3214L104.058 15.095H107.056Z" fill="white"/>
<path d="M121.172 12.7053H124.295C126.919 12.7053 128.418 14.2147 128.418 16.353C128.418 18.743 126.794 20.1266 124.045 20.1266H118.674V8.30273H127.668V10.6927H121.172V12.7053ZM121.172 14.8436V17.7367H124.045C125.295 17.7367 125.794 17.2336 125.794 16.2273C125.794 15.3468 125.17 14.8436 124.045 14.8436H121.172Z" fill="white"/>
<path d="M135.539 8.30273H140.286C143.034 8.30273 144.783 9.93795 144.783 12.4537C144.783 15.221 142.659 16.6046 140.036 16.6046H138.037V20.1266H135.414V8.30273H135.539ZM140.161 14.2147C141.41 14.2147 142.16 13.46 142.16 12.4537C142.16 11.3216 141.41 10.6927 140.036 10.6927H138.037V14.3405H140.161V14.2147Z" fill="white"/>
<path d="M161.896 20.1266H159.398V12.3279L154.276 20.1266H151.902V8.30273H154.401V16.1015L159.522 8.30273H161.896V20.1266Z" fill="white"/>
<path d="M169.143 14.2143C169.143 10.8181 171.641 8.05078 175.264 8.05078C177.512 8.05078 178.761 8.93128 179.761 9.93757L178.262 11.6986C177.387 10.8181 176.638 10.4407 175.264 10.4407C173.265 10.4407 171.891 12.0759 171.891 14.0885C171.891 16.1011 173.265 17.7363 175.264 17.7363C176.638 17.7363 177.387 17.2332 178.387 16.3527L180.011 18.1137C178.761 19.3715 177.512 20.1263 175.264 20.1263C171.766 20.252 169.143 17.6105 169.143 14.2143Z" fill="white"/>
<path d="M189.754 10.6927H186.131V8.30273H195.875V10.6927H192.377V20.1266H189.754V10.6927Z" fill="white"/>
<path d="M14.7406 0H0V16.1006H6.99554V6.41509H14.8655C23.2352 6.41509 28.6068 12.2013 28.6068 20C28.6068 27.9245 23.1103 33.5849 14.8655 33.5849H6.99554V23.8994H0V40H14.7406C27.2326 40 35.8521 31.3208 35.8521 20C35.8521 8.67924 27.2326 0 14.7406 0Z" fill="white"/>
<path d="M20.3622 16.1006H12.6172V23.8993H20.3622V16.1006Z" fill="#D43526"/>
<path d="M49.0938 32.4521H51.5922V33.0811H49.7184V36.2257H49.0938V32.4521Z" fill="white"/>
<path d="M52.3418 34.3389C52.3418 33.3327 53.0913 32.4521 54.2156 32.4521C55.3399 32.4521 56.0894 33.3327 56.0894 34.3389C56.0894 35.3452 55.3399 36.2257 54.2156 36.2257C53.0913 36.2257 52.3418 35.3452 52.3418 34.3389ZM55.4648 34.3389C55.4648 33.5842 54.9651 33.0811 54.2156 33.0811C53.4661 33.0811 52.9664 33.71 52.9664 34.3389C52.9664 35.0937 53.4661 35.5968 54.2156 35.5968C54.9651 35.5968 55.4648 34.9679 55.4648 34.3389Z" fill="white"/>
<path d="M57.3379 34.3389C57.3379 33.3327 58.0874 32.4521 59.2117 32.4521C59.8363 32.4521 60.336 32.7037 60.7107 33.0811L60.336 33.5842C60.0861 33.3327 59.7114 33.0811 59.3366 33.0811C58.5871 33.0811 58.0874 33.71 58.0874 34.3389C58.0874 35.0937 58.5871 35.5968 59.3366 35.5968C59.8363 35.5968 60.0861 35.471 60.336 35.0937L60.7107 35.471C60.336 35.8484 59.9612 36.1 59.2117 36.1C58.0874 36.2257 57.3379 35.3452 57.3379 34.3389Z" fill="white"/>
<path d="M62.8352 33.0811H61.7109V32.4521H64.709V33.0811H63.5847V36.2257H62.9601V33.0811H62.8352Z" fill="white"/>
<path d="M65.834 32.4521H66.4586V35.0937L68.3324 32.4521H68.957V36.1H68.3324V33.4584L66.4586 36.1H65.834V32.4521Z" fill="white"/>
<path d="M70.3301 32.4521H70.9547V33.9616H72.7036V32.4521H73.3282V36.1H72.7036V34.5905H70.9547V36.1H70.3301V32.4521Z" fill="white"/>
<path d="M74.9531 32.4521H75.5777V35.0937L77.4515 32.4521H78.0761V36.1H77.4515V33.4584L75.5777 36.1H74.9531V32.4521Z" fill="white"/>
<path d="M82.3224 36.1H79.4492V32.4521H80.0738V35.5968H81.8227V32.4521H82.4473V35.5968H82.947L82.8221 36.9805H82.3224V36.1Z" fill="white"/>
<path d="M84.0723 32.4521H84.6969V33.8358H85.5713C86.4457 33.8358 86.9454 34.2132 86.9454 34.9679C86.9454 35.7226 86.4457 36.2257 85.5713 36.2257H84.0723V32.4521ZM85.5713 35.5968C86.071 35.5968 86.3208 35.3452 86.3208 34.9679C86.3208 34.5905 86.071 34.3389 85.5713 34.3389H84.6969V35.5968H85.5713ZM87.3202 32.4521H87.9448V36.1H87.3202V32.4521Z" fill="white"/>
<path d="M95.4399 31.9492H95.9396L93.5661 36.8549H93.0664L95.4399 31.9492Z" fill="white"/>
<path d="M102.435 32.4521H103.059L104.683 36.2257H104.058L103.559 35.2194H101.81L101.435 36.1H100.811L102.435 32.4521ZM103.309 34.7163L102.684 33.2069L102.06 34.7163H103.309Z" fill="white"/>
<path d="M105.807 32.4521H108.805V36.1H108.18V32.9553H106.431V36.1H105.807V32.4521Z" fill="white"/>
<path d="M111.554 32.4521H112.178L113.802 36.2257H113.178L112.803 35.2194H111.054L110.679 36.1H109.93L111.554 32.4521ZM112.553 34.7163L111.928 33.2069L111.304 34.7163H112.553Z" fill="white"/>
<path d="M114.928 32.4521H116.427C117.301 32.4521 117.801 32.9553 117.801 33.71C117.801 34.5905 117.176 34.9679 116.302 34.9679H115.552V36.1H114.928V32.4521ZM116.302 34.3389C116.802 34.3389 117.051 34.0874 117.051 33.71C117.051 33.3327 116.802 33.0811 116.302 33.0811H115.552V34.4647H116.302V34.3389Z" fill="white"/>
<path d="M119.798 33.0811H118.674V32.4521H121.672V33.0811H120.548V36.2257H119.923V33.0811H119.798Z" fill="white"/>
<path d="M123.671 32.4521H124.295L125.919 36.2257H125.295L124.795 35.2194H123.046L122.671 36.1H122.047L123.671 32.4521ZM124.545 34.7163L123.921 33.2069L123.296 34.7163H124.545Z" fill="white"/>
<path d="M127.045 32.4521H127.794L128.919 34.2132L130.043 32.4521H130.793V36.1H130.168V33.4584L129.044 35.2194L127.919 33.4584V36.1H127.295V32.4521H127.045Z" fill="white"/>
<path d="M132.166 32.4521H134.914V33.0811H132.791V33.9616H134.664V34.5905H132.791V35.5968H134.914V36.2257H132.166V32.4521Z" fill="white"/>
<path d="M136.164 32.4521H136.789V33.9616H138.538V32.4521H139.162V36.1H138.538V34.5905H136.789V36.1H136.164V32.4521Z" fill="white"/>
<path d="M141.534 33.0811H140.41V32.4521H143.408V33.0811H142.284V36.2257H141.659V33.0811H141.534Z" fill="white"/>
<path d="M144.658 32.4521H145.283V33.8358H146.157C147.032 33.8358 147.531 34.2132 147.531 34.9679C147.531 35.7226 147.032 36.2257 146.157 36.2257H144.658V32.4521ZM146.032 35.5968C146.532 35.5968 146.782 35.3452 146.782 34.9679C146.782 34.5905 146.532 34.3389 146.032 34.3389H145.158V35.5968H146.032ZM147.906 32.4521H148.531V36.1H147.906V32.4521Z" fill="white"/>
<path d="M156.026 31.9492H156.526L154.152 36.8549H153.652L156.026 31.9492Z" fill="white"/>
<path d="M161.646 32.4521H162.271V34.3389L164.02 32.4521H164.769L163.27 34.0874L164.894 36.2257H164.145L162.896 34.5905L162.271 35.2194V36.3515H161.646V32.4521Z" fill="white"/>
<path d="M166.02 32.4521H167.643C168.018 32.4521 168.393 32.5779 168.643 32.8295C168.768 32.9553 168.893 33.2069 168.893 33.4584C168.893 33.9616 168.643 34.0874 168.393 34.3389C168.768 34.4647 169.143 34.7163 169.143 35.2194C169.143 35.8484 168.643 36.2257 167.768 36.2257H166.02V32.4521ZM167.519 33.9616C167.893 33.9616 168.268 33.8358 168.268 33.4584C168.268 33.2069 168.018 32.9553 167.643 32.9553H166.769V33.9616H167.519ZM167.768 35.5968C168.268 35.5968 168.518 35.471 168.518 35.0937C168.518 34.8421 168.268 34.5905 167.768 34.5905H166.769V35.5968H167.768Z" fill="white"/>
<path d="M171.517 32.4521H172.141L173.765 36.2257H173.141L172.766 35.3452H171.017L170.642 36.2257H169.893L171.517 32.4521ZM172.516 34.7163L171.891 33.2069L171.267 34.7163H172.516Z" fill="white"/>
<path d="M174.889 32.4521H176.388C177.262 32.4521 177.762 32.9553 177.762 33.71C177.762 34.5905 177.137 34.9679 176.263 34.9679H175.513V36.1H174.889V32.4521ZM176.263 34.3389C176.762 34.3389 177.012 34.0874 177.012 33.71C177.012 33.3327 176.762 33.0811 176.263 33.0811H175.513V34.4647H176.263V34.3389Z" fill="white"/>
<path d="M179.761 33.0811H178.637V32.4521H181.635V33.0811H180.511V36.2257H179.886V33.0811H179.761Z" fill="white"/>
<path d="M182.758 32.4521H183.382V35.0937L185.256 32.4521H185.881V36.1H185.256V33.4584L183.382 36.1H182.758V32.4521Z" fill="white"/>
<path d="M187.381 32.4521H188.88C189.754 32.4521 190.254 32.9553 190.254 33.71C190.254 34.5905 189.629 34.9679 188.755 34.9679H188.005V36.1H187.381V32.4521ZM188.755 34.3389C189.255 34.3389 189.504 34.0874 189.504 33.71C189.504 33.3327 189.255 33.0811 188.755 33.0811H188.005V34.4647H188.755V34.3389Z" fill="white"/>
<path d="M191.379 32.4521H192.004V33.8358H192.878C193.752 33.8358 194.252 34.2132 194.252 34.9679C194.252 35.7226 193.752 36.2257 192.878 36.2257H191.379V32.4521ZM192.878 35.5968C193.378 35.5968 193.627 35.3452 193.627 34.9679C193.627 34.5905 193.378 34.3389 192.878 34.3389H192.004V35.5968H192.878ZM194.752 32.4521H195.376V36.1H194.752V32.4521Z" fill="white"/>
</svg>
