<svg width="58" height="58" viewBox="0 0 58 58" fill="none" xmlns="http://www.w3.org/2000/svg">
<g clip-path="url(#clip0_408_585)">
<path d="M34.6137 18.096H52.154C52.3879 18.096 52.8557 17.864 52.8557 17.4V12.76C52.8557 12.528 52.6218 12.064 52.154 12.064H34.6137C34.3799 12.064 33.9121 12.296 33.9121 12.76V17.632C33.9121 17.864 34.146 18.096 34.6137 18.096ZM35.0815 13.224H51.4524V16.936H35.0815V13.224Z" fill="#575756"/>
<path d="M52.3865 40.6001H34.8461C34.6123 40.6001 34.1445 40.8321 34.1445 41.2961V46.1681C34.1445 46.4001 34.3784 46.8641 34.8461 46.8641H52.3865C52.6203 46.8641 53.0881 46.6321 53.0881 46.1681V41.2961C52.8542 40.8321 52.6203 40.6001 52.3865 40.6001ZM51.6849 45.2401H35.3139V41.7601H51.6849V45.2401Z" fill="#575756"/>
<path d="M41.6293 39.4399H45.3713C45.6052 39.4399 46.0729 39.2079 46.0729 38.7439V35.0319C46.0729 34.7999 45.839 34.3359 45.3713 34.3359H41.6293C41.3955 34.3359 40.9277 34.5679 40.9277 35.0319V38.7439C40.9277 39.2079 41.1616 39.4399 41.6293 39.4399ZM42.0971 35.9599H44.6697V38.2799H42.0971V35.9599Z" fill="#575756"/>
<path d="M45.3713 47.5601H41.6293C41.3955 47.5601 40.9277 47.7921 40.9277 48.2561V51.9681C40.9277 52.2001 41.1616 52.6641 41.6293 52.6641H45.3713C45.6052 52.6641 46.0729 52.4321 46.0729 51.9681V48.2561C45.839 47.7921 45.6052 47.5601 45.3713 47.5601ZM44.6697 51.0401H42.0971V48.7201H44.6697V51.0401Z" fill="#575756"/>
<path d="M23.3879 12.0639H17.5411V6.26387C17.5411 6.03187 17.3073 5.56787 16.8395 5.56787H12.1621C11.6944 5.79987 11.4605 6.03187 11.4605 6.26387V12.0639H5.61372C5.37985 12.0639 4.91211 12.2959 4.91211 12.7599V17.6319C4.91211 17.8639 5.14598 18.3279 5.61372 18.3279H11.4605V24.1279C11.4605 24.3599 11.6944 24.8239 12.1621 24.8239H17.0734C17.3073 24.8239 17.775 24.5919 17.775 24.1279V18.0959H23.3879C23.6218 18.0959 24.0895 17.8639 24.0895 17.3999V12.7599C24.0895 12.2959 23.6218 12.0639 23.3879 12.0639ZM22.6863 16.9359H17.0734C16.6057 16.9359 16.3718 17.1679 16.3718 17.3999V23.1999H12.6299V17.3999C12.6299 17.1679 12.396 16.7039 11.9282 16.7039H6.31534V13.2239H12.1621C12.396 13.2239 12.8637 12.9919 12.8637 12.5279V6.95987H16.3718V12.7599C16.3718 12.9919 16.6057 13.4559 17.0734 13.4559H22.9202V16.9359H22.6863Z" fill="#575756"/>
<path d="M18.7096 43.8478L22.9192 39.6718C22.9192 39.6718 23.1531 39.4398 23.1531 39.2078C23.1531 38.9758 23.1531 38.9758 22.9192 38.7438L19.4112 35.2638C19.1773 35.0318 18.7096 35.0318 18.4757 35.2638L14.266 39.4398L10.0563 35.2638C9.82246 35.0318 9.35471 35.0318 9.12084 35.2638L5.61278 38.7438C5.61278 38.7438 5.37891 38.9758 5.37891 39.2078C5.37891 39.4398 5.37891 39.4398 5.61278 39.6718L9.82245 43.8478L5.61278 48.0238C5.37891 48.2558 5.37891 48.7198 5.61278 48.9518L9.12084 52.4318C9.35471 52.6638 9.82246 52.6638 10.0563 52.4318L14.266 48.2558L18.7096 52.1998C18.7096 52.1998 18.9434 52.4318 19.1773 52.4318C19.4112 52.4318 19.4112 52.4318 19.645 52.1998L22.9192 48.7198C23.1531 48.4878 23.1531 48.0238 22.9192 47.7918L18.7096 43.8478ZM19.1773 50.8078L14.9676 46.6318C14.9676 46.6318 14.7337 46.3998 14.4999 46.3998C14.266 46.3998 14.266 46.3998 14.0321 46.6318L9.82245 50.8078L7.24987 48.2558L11.4596 44.0798C11.6934 44.0798 11.6934 43.6158 11.4596 43.3838L7.48375 39.4398L10.0563 36.8878L14.0321 40.8318C14.266 41.0638 14.7337 41.0638 14.9676 40.8318L19.1773 36.6558L21.7499 39.4398L17.5402 43.6158C17.3063 43.8478 17.3063 44.3118 17.5402 44.5438L21.7499 48.7198L19.1773 50.8078Z" fill="#575756"/>
<path d="M55.6613 29.696L54.4919 29L55.6613 28.304C57.0645 27.608 57.7661 26.216 57.7661 24.824V3.944C58 1.856 56.129 0 53.7903 0H32.7419C31.3387 0 30.1694 0.696 29.4677 1.856L28.7661 2.784L28.0645 1.856C27.5968 0.696 26.4274 0 25.0242 0H3.97581C1.87097 0 0 1.856 0 3.944V24.824C0 26.448 0.935484 27.608 2.10484 28.304L3.27419 29L2.10484 29.696C0.935484 30.392 0 31.784 0 33.176V54.056C0 56.376 1.87097 58 3.97581 58H25.0242C26.4274 58 27.5968 57.304 28.5323 56.144L29.2339 55.216L29.9355 56.144C30.6371 57.304 32.0403 58 33.2097 58H54.2581C56.5968 58 58.2339 56.144 58.2339 54.056V33.176C58 31.784 57.0645 30.392 55.6613 29.696ZM31.1048 3.944C31.1048 3.016 32.0403 2.088 32.9758 2.088H54.0242C54.9597 2.088 55.8952 3.016 55.8952 3.944V24.824C55.8952 25.752 54.9597 26.68 54.0242 26.68H32.9758C32.0403 26.68 31.1048 25.752 31.1048 24.824V3.944ZM2.10484 24.824V3.944C2.10484 3.016 3.04032 2.088 3.97581 2.088H25.0242C25.9597 2.088 26.8952 3.016 26.8952 3.944V24.824C26.8952 25.752 25.9597 26.68 25.0242 26.68H3.97581C3.04032 26.68 2.10484 25.752 2.10484 24.824ZM26.8952 54.056C26.8952 54.984 25.9597 55.912 25.0242 55.912H3.97581C3.04032 55.912 2.10484 54.984 2.10484 54.056V33.176C2.10484 32.248 3.04032 31.32 3.97581 31.32H25.0242C25.9597 31.32 26.8952 32.248 26.8952 33.176V54.056ZM29.7016 31.088L29 32.016L28.2984 31.088C27.8306 30.392 27.3629 29.928 26.6613 29.696L25.7258 29L26.8952 28.304C27.5968 28.072 28.0645 27.608 28.2984 26.912L29 25.984L29.7016 26.912C30.1694 27.376 30.6371 27.84 31.3387 28.304L32.5081 29L31.3387 29.696C30.4032 29.928 29.9355 30.392 29.7016 31.088ZM55.8952 54.056C55.8952 54.984 54.9597 55.912 54.0242 55.912H32.9758C32.0403 55.912 31.1048 54.984 31.1048 54.056V33.176C31.1048 32.248 32.0403 31.32 32.9758 31.32H54.0242C54.9597 31.32 55.8952 32.248 55.8952 33.176V54.056Z" fill="#575756"/>
</g>
<defs>
<clipPath id="clip0_408_585">
<rect width="58" height="58" fill="white"/>
</clipPath>
</defs>
</svg>
