<svg width="72" height="68" viewBox="0 0 72 68" fill="none" xmlns="http://www.w3.org/2000/svg">
<g clip-path="url(#clip0_408_617)">
<path d="M71.9996 63.9036C69.3329 45.6747 66.6663 27.241 63.9996 9.01205C63.5893 6.14458 63.1791 3.48193 62.7688 0.819277C62.5637 0.204819 61.7432 0 61.1278 0C55.1791 0.819277 49.2304 1.84337 43.0765 2.66265C42.256 2.86747 42.0509 3.68675 42.256 4.3012C43.4868 12.2892 44.5124 20.2771 45.7432 28.2651C39.9996 22.7349 34.4611 17.4096 28.7175 11.8795C26.8714 10.0361 24.8201 8.19277 22.9739 6.3494C22.5637 5.93976 21.7432 5.93976 21.1278 6.3494C17.0252 10.6506 12.7175 15.1566 8.61497 19.4578C8.20471 19.8675 8.20471 20.6867 8.8201 21.0964C9.84574 22.1205 10.8714 23.1446 11.897 24.1687C11.0765 23.759 10.256 23.3494 9.23035 22.9398C8.61497 22.7349 7.79446 22.7349 7.58933 23.3494C5.12779 28.8795 2.66625 34.4096 0.204714 39.9398C-0.000414662 40.5542 -0.000414632 41.3735 0.61497 41.5783C3.69189 43.012 6.76882 44.241 9.64061 45.6747C7.79446 45.6747 5.74318 45.6747 3.89702 45.6747C3.28164 45.6747 2.66625 46.2892 2.66625 46.9036C2.66625 53.0482 2.46112 58.9879 2.46112 65.1325C2.46112 65.747 3.07651 66.3615 3.69189 66.3615C19.6919 66.5663 35.6919 66.7711 51.4868 66.9759V67.1807C51.6919 68 52.5124 68.2048 53.1278 68C54.5637 67.7952 55.9996 67.5904 57.4355 67.3855C57.8457 67.5904 58.256 67.7952 58.6663 67.7952C59.2816 68 60.1022 68 60.3073 67.3855C60.3073 67.1807 60.5124 67.1807 60.5124 66.9759C62.7688 66.9759 65.0252 66.9759 67.2816 66.9759C67.897 66.9759 68.5124 66.3614 68.5124 65.747C68.5124 65.747 68.5124 65.747 68.5124 65.5422C69.3329 65.3373 70.1534 65.3373 70.9739 65.1325C71.7945 64.9277 71.9996 64.5181 71.7945 63.9036C71.9996 64.1084 71.9996 63.9036 71.9996 63.9036ZM11.4868 20.2771C14.9739 16.3855 18.6663 12.6988 22.3586 9.01205C30.3586 16.7952 38.5637 24.5783 46.5637 32.3614C47.7945 40.759 49.0252 49.1566 50.256 57.759C38.9739 46.6988 27.6919 35.8434 16.4098 24.988C14.7688 23.3494 13.1278 21.7108 11.4868 20.2771ZM9.23035 42.8072C7.17907 41.7831 4.92266 40.9639 2.87138 39.9398C4.92266 35.2289 7.17907 30.5181 9.23035 25.6024C11.897 26.8313 14.5637 28.0602 17.2304 29.0843C27.6919 39.1205 38.3586 49.3614 48.8201 59.3976C49.4355 60.012 50.0509 60.6265 50.6663 61.241C36.9227 55.3012 22.9739 49.1566 9.23035 42.8072ZM11.6919 63.9036C9.43548 63.9036 7.17907 63.9036 4.92266 63.9036C4.92266 58.7831 5.12779 53.4578 5.12779 48.3373C8.61497 48.3373 11.897 48.3373 15.3842 48.5422C27.2816 53.8675 39.1791 59.1928 51.0765 64.5181C37.9483 64.3133 24.8201 64.1084 11.6919 63.9036ZM53.9483 65.3373C51.2816 47.3133 48.615 29.494 45.9483 11.4699C45.5381 9.21687 45.3329 7.16867 44.9227 4.91566C50.0509 4.09639 55.1791 3.48193 60.5124 2.66265C63.1791 20.6867 65.8457 38.506 68.5124 56.5301C68.9227 58.7831 69.1278 60.8313 69.5381 63.0843C64.2047 63.9036 59.0765 64.5181 53.9483 65.3373Z" fill="#575756"/>
<path d="M60.7178 53.458C58.4614 53.458 56.6152 55.3014 56.6152 57.5544C56.6152 59.8074 58.4614 61.6508 60.7178 61.6508C62.9742 61.6508 64.8204 59.8074 64.8204 57.5544C64.8204 55.3014 62.9742 53.458 60.7178 53.458ZM60.7178 60.6267C59.0768 60.6267 57.846 59.3978 57.846 57.7592C57.846 56.1207 59.0768 54.8917 60.7178 54.8917C62.3588 54.8917 63.5896 56.1207 63.5896 57.7592C63.5896 59.193 62.3588 60.6267 60.7178 60.6267Z" fill="#575756"/>
</g>
<defs>
<clipPath id="clip0_408_617">
<rect width="72" height="68" fill="white"/>
</clipPath>
</defs>
</svg>
