<svg width="64" height="69" viewBox="0 0 64 69" fill="none" xmlns="http://www.w3.org/2000/svg">
<g clip-path="url(#clip0_408_594)">
<path d="M19.0115 60.0663C17.3174 59.306 15.9997 58.5457 15.2468 57.9754C14.8703 57.7853 14.4938 57.4052 14.3056 57.2151C14.1174 57.2151 14.1174 57.025 14.1174 57.025C13.3644 56.4547 12.4233 56.6448 11.8585 57.4052C11.2938 58.1655 11.4821 59.1159 12.0468 59.6862C18.2585 65.0085 24.0938 67.8597 29.5527 68.8101C30.6821 69.0002 31.8115 69.0002 32.9409 69.0002C34.4468 69.0002 36.1409 68.8101 37.835 68.43C39.9056 68.0498 42.1644 67.2895 44.6115 66.149L45.9291 68.0498C46.3056 68.62 46.8703 68.8101 47.435 68.8101C47.9997 68.8101 48.5644 68.2399 48.7527 67.6696L52.3291 58.3556C52.5174 57.7853 52.5174 57.2151 52.1409 56.8349C51.9527 56.4547 51.388 56.0746 50.8232 56.0746L40.8468 54.9341C40.2821 54.9341 39.5291 55.1242 39.3409 55.6944C38.9644 56.2647 38.9644 57.025 39.3409 57.4052L40.2821 59.1159C37.6468 60.8266 34.635 61.7771 31.6232 61.9671C26.5409 62.7275 22.0233 61.2068 19.0115 60.0663ZM42.1644 60.6366C42.7291 60.2564 42.7291 59.6862 42.5409 59.1159L41.4115 57.4052L49.5056 58.3556L46.4938 66.149L45.1762 64.2481C44.7997 63.868 44.235 63.6779 43.8585 63.868C41.4115 65.1985 38.9644 65.9589 36.8938 66.339C34.4468 66.9093 31.9997 66.9093 29.5527 66.5291C26.3527 65.9589 22.9644 64.6283 19.388 62.5374C22.588 63.868 26.9174 65.0085 31.8115 64.4382C35.388 64.0581 38.9644 62.7275 42.1644 60.6366Z" fill="#575756"/>
<path d="M48.0002 11.025C48.3767 11.4051 48.7531 11.5952 48.9414 11.7853C49.1296 11.7853 49.1296 11.9754 49.1296 11.9754C49.8825 12.5456 50.8237 12.3555 51.3884 11.5952C51.9531 10.8349 51.7649 9.88446 51.2002 9.31421C45.1767 3.9919 39.3414 1.14066 33.8825 0.190245C31.2472 -0.18992 28.4237 -0.189921 25.7884 0.380327C23.7178 0.760493 21.459 1.52082 19.0119 2.66132L17.6943 0.760493C17.3178 0.380327 16.7531 0.190245 16.1884 0.190245C15.4355 0.190245 15.059 0.57041 14.6825 1.33074L11.1061 10.6448C10.9178 11.025 10.9178 11.5952 11.2943 11.9754C11.4825 12.3555 12.0472 12.7357 12.6119 12.7357L22.5884 13.8762H22.7767C23.3414 13.8762 23.9061 13.496 24.0943 13.1159C24.4708 12.5456 24.4708 11.7853 24.0943 11.4051L23.1531 9.69438C25.7884 7.98363 28.8002 7.03322 31.8119 6.84314C36.7061 6.27289 41.4119 7.79355 44.2355 9.12413C45.7414 9.69438 47.059 10.4547 48.0002 11.025ZM31.4355 4.56215C27.6708 4.94231 24.0943 6.27289 20.8943 8.3638C20.3296 8.74396 20.3296 9.31421 20.5178 9.88446L21.459 11.5952L13.3649 10.6448L16.3767 2.8514L17.6943 4.75223C18.0708 5.13239 18.6355 5.32248 19.0119 5.13239C21.459 3.80181 23.9061 3.04148 25.9767 2.66132C28.4237 2.09107 30.8708 2.09107 33.3178 2.47124C36.5178 3.04148 39.9061 4.37206 43.4825 6.46297C40.659 5.32248 36.1414 4.18198 31.4355 4.56215Z" fill="#575756"/>
<path d="M11.6708 37.2565C14.1179 37.2565 16.3767 36.3061 18.259 34.5954C19.9531 32.8846 20.8943 30.6036 20.8943 27.9425C20.8943 22.8102 16.7531 18.6284 11.6708 18.6284C9.22374 18.6284 6.96491 19.5788 5.08256 21.2896C3.38844 23.0003 2.44727 25.2813 2.44727 27.9425C2.44727 33.2648 6.58844 37.2565 11.6708 37.2565ZM6.77668 23.1904C8.09432 21.8598 9.78844 21.0995 11.4826 21.0995C15.2473 21.0995 18.259 24.1408 18.259 27.9425C18.259 29.8433 17.5061 31.554 16.1884 32.6945C15.059 34.2152 13.3649 34.9755 11.6708 34.9755C7.90609 34.9755 4.89432 31.9342 4.89432 28.1326C4.89432 26.2317 5.64727 24.521 6.77668 23.1904Z" fill="#575756"/>
<path d="M23.3412 50.3722C23.3412 49.9921 23.5294 42.1987 18.6353 37.6367C18.2588 37.2565 17.5059 37.2565 17.1294 37.6367C17.1294 37.6367 11.6706 41.8185 6.58824 37.6367C6.21177 37.2565 5.45882 37.2565 5.08235 37.6367C4.89412 37.8268 0.188235 42.0086 0 50.3722C0 50.7524 0.188235 50.9425 0.376471 51.3226C0.564706 51.5127 0.941177 51.7028 1.31765 51.7028H22.2118C22.7765 51.5127 23.3412 50.9425 23.3412 50.3722ZM2.44706 49.0416C2.82353 44.2896 4.89412 41.4383 5.83529 40.1078C10.1647 42.959 14.8706 41.6284 17.5059 40.1078C19.9529 42.959 20.5176 46.9507 20.7059 49.0416H2.44706Z" fill="#575756"/>
<path d="M45.7408 21.4795C44.0466 23.1903 43.1055 25.4713 43.1055 28.1324C43.1055 33.2646 47.2466 37.4465 52.329 37.4465C54.7761 37.4465 57.0349 36.496 58.729 34.7853C60.4231 33.0746 61.3643 30.7936 61.3643 28.1324C61.3643 23.0002 57.2231 18.8184 52.1408 18.8184C49.8819 18.8184 47.6231 19.7688 45.7408 21.4795ZM59.1055 28.1324C59.1055 30.0332 58.3525 31.744 57.0349 32.8845C55.7172 34.2151 54.0231 34.9754 52.329 34.9754C48.5643 34.9754 45.5525 31.9341 45.5525 28.1324C45.5525 26.2316 46.3055 24.5208 47.6231 23.3803C48.9408 22.0498 50.6349 21.2894 52.329 21.2894C56.0937 21.2894 59.1055 24.3308 59.1055 28.1324Z" fill="#575756"/>
<path d="M59.2935 37.6367C58.917 37.2565 58.1641 37.2565 57.7876 37.6367C57.7876 37.6367 52.3288 41.8185 47.2464 37.6367C46.87 37.2565 46.117 37.2565 45.7406 37.6367C45.5523 37.8268 40.8464 42.0086 40.6582 50.3722C40.6582 50.7524 40.8464 50.9425 41.0347 51.3226C41.2229 51.5127 41.5994 51.7028 41.9758 51.7028H62.87C63.4347 51.7028 63.9994 51.1326 63.9994 50.5623C63.9994 49.9921 64.1876 42.1987 59.2935 37.6367ZM43.1053 49.0416C43.4817 44.2896 45.5523 41.4383 46.4935 40.1078C50.8229 42.959 55.5288 41.6284 58.1641 40.1078C60.6111 42.959 61.1758 46.9507 61.3641 49.0416H43.1053Z" fill="#575756"/>
</g>
<defs>
<clipPath id="clip0_408_594">
<rect width="64" height="69" fill="white"/>
</clipPath>
</defs>
</svg>
