<svg width="75" height="49" viewBox="0 0 75 49" fill="none" xmlns="http://www.w3.org/2000/svg">
<g clip-path="url(#clip0_408_583)">
<path d="M74.3034 16.8724C74.7678 16.4102 75.2322 15.7168 75.2322 15.0234C75.2322 14.33 75 13.6366 74.3034 13.1743C74.0712 12.9432 73.839 12.7121 73.3746 12.7121C71.2848 11.7875 69.1951 11.0941 67.1053 10.1696C65.7121 9.70734 64.3189 9.24507 63.1579 8.55168L49.4582 3.46677C48.065 3.00451 46.6718 2.31111 45.0464 1.84885C44.582 1.61771 44.1176 1.38658 43.6533 1.38658H43.4211C42.2601 0.924318 41.0991 0.462054 39.7059 0.230922C37.8483 -0.000210419 36.2229 -0.000210419 34.8297 0.462054C33.2043 0.924318 31.3468 1.61771 29.9536 2.31111L28.096 3.00451C26.935 3.46677 25.774 3.92903 24.3808 4.3913L12.7709 8.78281C9.52012 9.70734 6.73375 10.863 3.71517 12.0187C3.01858 12.2498 2.08978 12.7121 1.16099 13.1743C0.464396 13.6366 0 14.33 0 15.0234C0 15.7168 0.232198 16.4102 0.928793 17.1036C1.16099 17.3347 1.39319 17.5658 1.62539 17.5658C2.32198 17.797 3.25077 18.0281 4.17957 18.4904C7.19814 19.646 10.2167 20.8017 13.2353 21.9573C13.2353 24.0375 13.2353 26.1177 13.2353 28.1979V33.5139C13.2353 35.363 13.2353 36.9809 13.2353 38.83C13.2353 39.5234 13.4675 40.2168 13.9319 40.4479C14.1641 40.679 14.3963 40.9102 14.6285 41.1413C14.8607 41.3724 15.3251 41.6036 15.5573 41.8347C18.5759 44.146 21.5944 45.7639 24.8452 46.9196C26.7028 47.613 28.096 47.8441 29.7214 48.3064C32.0433 48.7687 33.9009 48.9998 35.5263 48.9998C36.4551 48.9998 37.3839 48.9998 38.0805 48.9998C40.1703 48.9998 42.2601 48.7687 43.8855 48.5375C45.5108 48.0753 47.3684 47.8441 49.226 47.3819C49.6904 47.3819 49.9226 47.1507 50.387 46.9196C50.6192 46.9196 50.6192 46.6885 50.8514 46.6885C51.0836 46.6885 51.0836 46.6885 51.548 46.4573C51.7802 46.4573 52.2446 46.2262 52.4768 46.2262C55.2632 45.0705 57.8173 43.6838 60.1393 41.8347C60.6037 41.3724 61.5325 40.679 61.5325 39.2922C61.5325 38.3677 61.5325 37.4432 61.5325 36.5187V36.2875C61.5325 35.8253 61.5325 35.363 61.5325 35.1319V30.9715C61.5325 27.9668 61.5325 25.1932 61.5325 22.1885C61.9969 21.9573 62.4613 21.7262 62.9257 21.7262L66.6409 20.3394C66.8731 20.3394 67.1053 20.1083 67.3375 20.1083C67.3375 20.3394 67.3375 20.3394 67.3375 20.5705V22.1885C67.3375 22.8819 67.3375 23.5753 67.3375 24.2687C66.4087 24.9621 66.1765 26.1177 65.9443 27.0422L65.7121 27.7356C65.4799 28.429 65.4799 29.1224 65.2477 29.5847C64.7833 31.4338 65.4799 32.5894 67.3375 33.2828C67.8019 33.5139 68.2663 33.5139 68.7307 33.5139C69.4273 33.5139 69.8916 33.2828 70.5882 33.0517C71.9814 32.5894 72.678 31.2026 72.4458 30.047C72.2136 28.8913 71.9814 27.5045 71.517 26.3488C71.2848 25.4243 70.8204 24.7309 70.356 24.2687C70.356 24.2687 70.356 24.2687 70.356 24.0375C70.356 23.3441 70.356 22.6507 70.356 21.9573V19.8771C70.356 19.4149 70.356 18.9526 70.356 18.4904C70.8204 18.2592 71.2848 18.0281 71.7492 18.0281C73.1424 17.5658 73.839 17.3347 74.3034 16.8724ZM16.4861 23.113C18.1115 23.8064 19.969 24.4998 21.5944 24.9621L31.579 28.6602C32.5077 28.8913 33.2043 29.3536 34.1331 29.5847C35.5263 30.047 36.6873 30.2781 38.3127 30.047C39.7059 30.047 41.0991 29.3536 42.4923 28.8913L43.1889 28.6602C44.1177 28.429 44.8142 27.9668 45.5108 27.7356L53.87 24.4998C54.7988 24.0375 55.7276 23.8064 56.6564 23.3441L58.2817 22.6507V36.9809C58.2817 37.2121 58.2817 37.4432 58.2817 37.4432C58.2817 37.6743 58.2817 38.1366 58.2817 38.5988C56.6564 39.9856 55.031 40.9102 53.1734 41.8347C52.9412 42.0658 52.709 42.0658 52.2446 42.297C51.7802 42.5281 51.0836 42.7592 50.387 42.9904C49.4582 43.4526 48.5294 43.6838 47.6006 43.9149C45.743 44.3771 43.8855 44.8394 41.7957 45.0705C40.6347 45.3017 39.2415 45.3017 37.8483 45.3017C35.9907 45.3017 34.3653 45.3017 32.7399 45.0705C28.5604 44.6083 24.8452 43.4526 21.3622 41.6036C19.5046 40.679 17.8793 39.5234 16.2539 38.3677C15.7895 38.1366 15.7895 37.9054 15.7895 37.6743C15.7895 34.4385 15.7895 31.2026 15.7895 27.9668L16.4861 23.113ZM46.6718 24.2687C44.8142 24.9621 42.7245 25.6555 40.8669 26.3488C40.4025 26.58 39.9381 26.58 39.4737 26.58C39.0093 26.58 38.7771 26.8111 38.3127 26.8111C37.3839 27.0422 36.4551 26.8111 35.5263 26.58C34.8297 26.3488 34.3653 26.1177 33.6687 25.8866H33.4365C33.2043 25.8866 32.9721 25.6555 32.7399 25.6555C30.8824 24.9621 29.0248 24.2687 27.1672 23.5753L4.41177 15.2545L16.9505 10.6319C18.3437 9.93847 19.969 9.24507 21.3622 8.78281L31.579 4.85356C32.7399 4.3913 33.9009 3.92903 35.2941 3.46677C36.2229 3.23564 37.1517 3.23564 37.8483 3.00451C39.0093 3.00451 40.1703 3.46677 41.3313 3.92903C42.4923 4.3913 43.4211 4.85356 44.5821 5.0847L61.3003 11.5564C62.4613 12.0187 63.6223 12.4809 64.5511 12.9432L69.6594 14.7922C69.8916 15.0234 70.356 15.0234 70.5882 15.2545C66.8731 16.6413 63.1579 18.0281 59.6749 19.4149L46.6718 24.2687ZM69.4273 27.9668C69.4273 28.429 69.6594 28.8913 69.6594 29.3536V29.8158C69.4273 29.8158 69.1951 29.8158 68.9629 29.8158C69.1951 29.1224 69.1951 28.6602 69.4273 27.9668Z" fill="#575756"/>
</g>
<defs>
<clipPath id="clip0_408_583">
<rect width="75" height="49" fill="white"/>
</clipPath>
</defs>
</svg>
