<svg width="75" height="51" viewBox="0 0 75 51" fill="none" xmlns="http://www.w3.org/2000/svg">
<g clip-path="url(#clip0_408_636)">
<path d="M75 43.6605C75 43.2842 75.3759 32.369 68.609 26.1587C68.2331 25.7823 67.4812 25.7823 66.9173 26.1587C66.9173 26.1587 59.2105 32.1808 52.0677 26.1587C51.5038 25.7823 50.9398 25.7823 50.3759 26.1587C50.188 26.3469 48.1203 28.2288 46.2406 31.8044C45.8647 31.6163 45.3007 31.6163 44.9248 31.9926C44.5489 32.1808 37.218 38.0148 30.0752 31.9926C29.6992 31.6163 29.3233 31.6163 28.9474 31.8044C28.0075 29.7343 26.6917 27.8524 25 26.1587C24.6241 25.7823 23.8722 25.7823 23.3083 26.1587C23.3083 26.1587 15.6015 32.1808 8.45865 26.1587C7.89474 25.7823 7.33083 25.7823 6.76692 26.1587C6.57895 26.3469 0.18797 32.1808 0 43.4723C0 43.8487 0.18797 44.2251 0.37594 44.4133C0.56391 44.6015 0.93985 44.7897 1.31579 44.7897H22.1805C21.9925 46.2952 21.8045 47.8008 21.8045 49.3063C21.8045 49.6827 21.9925 50.0591 22.1805 50.2473C22.3684 50.4354 22.7444 50.6236 23.1203 50.6236H51.8797C52.6316 50.6236 53.1955 50.0591 53.1955 49.3063C53.1955 49.1181 53.1955 47.2362 52.8195 44.6015H73.8722C74.4361 44.9779 75 44.4133 75 43.6605ZM22.7444 42.3432H2.63158C3.00752 35.1919 6.20301 30.6753 7.70677 28.9816C14.4737 33.8746 21.4286 30.4871 23.8722 28.9816C25.188 30.4871 26.1278 32.1808 26.8797 33.8746C25.7519 35.5683 23.8722 38.3912 22.7444 42.3432ZM24.4361 48.1771C24.812 41.0259 28.0075 36.5092 29.5113 34.8155C36.2782 39.7085 43.2331 36.3211 45.6767 34.8155C49.6241 39.1439 50.188 45.5425 50.3759 48.1771H24.4361ZM52.2556 42.3432C51.5038 39.7085 50.3759 36.5092 48.3083 34.0628C49.4361 31.6163 50.5639 29.9225 51.3158 29.1698C58.0827 34.0628 65.0376 30.6753 67.4812 29.1698C71.4286 33.4982 71.9925 39.8967 72.1805 42.5314L52.2556 42.3432Z" fill="#575756"/>
<path d="M59.3979 0C56.2024 0 53.0069 1.31734 50.7512 3.76384C48.8715 5.83395 47.5557 8.28044 47.1798 10.9151C44.9242 7.90406 41.3527 5.83395 37.4054 5.83395C34.2099 5.83395 31.0144 7.15129 28.7588 9.59779C28.3828 9.97417 28.1948 10.3506 27.8189 10.5387C26.8791 4.7048 21.8039 0 15.6009 0C12.4054 0 9.39785 1.31734 6.95424 3.76384C4.6986 6.02214 3.38281 9.2214 3.38281 12.6089C3.38281 19.572 8.83394 25.2177 15.6009 25.2177C18.7963 25.2177 21.9918 23.9004 24.2475 21.4539C24.6234 21.0775 24.8114 20.7011 25.1873 20.5129C26.1272 26.5351 31.2024 31.2399 37.4054 31.2399C40.6009 31.2399 43.7963 29.9225 46.052 27.476C47.9317 25.4059 49.2475 22.9594 49.6234 20.3247C51.8791 23.3358 55.4505 25.4059 59.3979 25.4059C62.5933 25.4059 65.7888 24.0886 68.0445 21.6421C70.3001 19.1956 71.6159 16.1845 71.6159 12.797C71.6159 5.64576 66.1648 0 59.3979 0ZM22.5557 19.572C20.676 21.4539 18.2324 22.3948 15.7888 22.3948C10.5257 22.3948 6.01439 17.8782 6.01439 12.4207C6.01439 9.97417 6.95424 7.52768 8.83394 5.64576C10.7136 3.76384 13.1572 2.82288 15.6009 2.82288C20.864 2.82288 25.3753 7.33948 25.3753 12.797C25.3753 15.2435 24.4354 17.69 22.5557 19.572ZM44.1723 25.5941C42.2926 27.476 39.849 28.417 37.4054 28.417C32.1422 28.417 27.6309 23.9004 27.6309 18.4428C27.6309 15.8081 28.5708 13.3616 30.4505 11.4797C32.3302 9.59779 34.7738 8.65683 37.2174 8.65683C42.4806 8.65683 46.9918 13.1734 46.9918 18.631C47.1798 21.0775 46.052 23.7122 44.1723 25.5941ZM66.1648 19.572C64.2851 21.4539 61.8415 22.3948 59.3979 22.3948C54.1347 22.3948 49.6234 17.8782 49.6234 12.4207C49.6234 9.97417 50.7512 7.52768 52.443 5.64576C54.3227 3.76384 56.7663 2.82288 59.2099 2.82288C64.473 2.82288 68.9843 7.33948 68.9843 12.797C68.9843 15.2435 68.0445 17.69 66.1648 19.572Z" fill="#575756"/>
</g>
<defs>
<clipPath id="clip0_408_636">
<rect width="75" height="51" fill="white"/>
</clipPath>
</defs>
</svg>
