<svg width="74" height="64" viewBox="0 0 74 64" fill="none" xmlns="http://www.w3.org/2000/svg">
<path d="M9.88215 22.0217H40.4474C40.907 22.0217 41.3666 21.5629 41.3666 21.1041C41.3666 20.6453 40.907 20.1865 40.4474 20.1865H9.88215C9.42252 20.1865 8.96289 20.6453 8.96289 21.1041C8.96289 21.5629 9.42252 22.0217 9.88215 22.0217Z" fill="#575756"/>
<path d="M40.4474 47.9429H9.88215C9.42252 47.9429 8.96289 48.4017 8.96289 48.8604C8.96289 49.3192 9.42252 49.778 9.88215 49.778H40.4474C40.907 49.778 41.3666 49.3192 41.3666 48.8604C41.3666 48.4017 40.907 47.9429 40.4474 47.9429Z" fill="#575756"/>
<path d="M72.3913 2.29391C72.3913 2.29391 72.1615 2.29391 72.3913 2.29391C71.2422 0.917563 69.8633 0.229391 68.4845 0.229391C66.4161 0.229391 64.8074 1.83513 64.5776 2.06452L52.8571 15.3692C52.6273 15.5986 52.6273 15.828 52.6273 16.0573V16.2867L51.9379 16.9749L51.7081 16.5161L50.559 17.8925V0H0V64H50.3292V35.785L59.2919 25.6918L58.8323 25.233L59.5217 24.5448H59.7515C59.9814 24.5448 60.2112 24.5448 60.441 24.3154L72.1615 11.2401C72.1615 11.2401 74 9.40502 74 6.65233C74 5.0466 73.3106 3.67025 72.3913 2.29391ZM48.4907 37.8495V61.9355H1.83851V2.06452H48.4907V20.1864L38.3789 31.6559L39.0683 32.5735L38.8385 34.1792H9.88199C9.42236 34.1792 8.96273 34.638 8.96273 35.0968C8.96273 35.5556 9.42236 36.0143 9.88199 36.0143H38.6087L37.9193 41.0609L45.5031 39.4552L46.1925 40.1434L48.4907 37.8495L49.4099 36.9319L48.4907 37.8495ZM39.9876 40.1434L38.3789 40.6022H38.1491L38.3789 38.5376L38.8385 38.9964L39.7578 33.491L44.5838 38.767L39.7578 39.6846L39.9876 40.1434ZM45.9627 37.6201L40.677 31.6559L51.2484 19.7276L56.5342 25.6918L45.9627 37.6201ZM57.913 24.7742L52.1677 18.3513L52.8571 17.6631L58.6025 24.3154L57.913 24.7742ZM70.7826 9.63441L59.7515 22.0215L54.6956 16.0573L65.9565 3.44086C65.9565 3.44086 67.1056 2.29391 68.4845 2.29391C69.4037 2.29391 70.323 2.75269 71.0124 3.67025C71.7019 4.58781 72.1615 5.50538 72.1615 6.42294C72.1615 8.25807 71.0124 9.63441 70.7826 9.63441Z" fill="#575756"/>
<path d="M52.6274 12.8457C52.8573 13.3044 53.5467 13.3044 53.7765 12.8457L62.0498 3.44064C62.2796 2.98186 62.2796 2.52308 62.0498 2.0643C61.82 1.60552 61.1305 1.60552 60.9007 2.0643L52.6274 11.4693C52.3976 11.9281 52.3976 12.3869 52.6274 12.8457Z" fill="#575756"/>
</svg>
