<svg width="49" height="57" viewBox="0 0 49 57" fill="none" xmlns="http://www.w3.org/2000/svg">
<path d="M30.3431 30.5504C30.5481 30.5504 30.7531 30.7554 30.9582 30.7554C31.3682 30.7554 31.5732 30.5504 31.9833 30.3453L48.3849 16.6079C48.795 16.4029 49 15.7878 49 15.3777C49 14.9676 48.795 14.5576 48.3849 14.1475L31.9833 0.410088C31.5732 1.63168e-05 30.9582 1.63168e-05 30.3431 0.205052C29.728 0.410088 29.523 1.0252 29.523 1.6403V5.94606H1.64017C0.615063 5.94606 0 6.56117 0 7.38131V23.1691C0 23.9892 0.615063 24.8094 1.64017 24.8094H29.523V29.1151C29.523 29.7302 29.9331 30.3453 30.3431 30.5504ZM3.07531 21.7338V9.0216H30.9582C31.7782 9.0216 32.5983 8.40649 32.5983 7.38131V4.92088L44.8996 15.3777L32.5983 25.8346V23.3741C32.5983 22.554 31.9833 21.7338 30.9582 21.7338H3.07531Z" fill="#575756"/>
<path d="M0.615063 42.8525L17.0167 56.5899C17.2218 56.795 17.6318 57 18.0418 57C18.2469 57 18.4519 57 18.6569 56.795C19.272 56.5899 19.477 55.9748 19.477 55.3597V51.054H47.3598C48.1799 51.054 49 50.4388 49 49.4137V33.6259C49 32.8058 48.3849 31.9856 47.3598 31.9856H19.477V27.6799C19.477 27.0647 19.0669 26.4496 18.6569 26.2446C18.0418 26.0396 17.4268 26.0396 17.0167 26.4496L0.615063 40.187C0.205021 40.8022 0 41.2122 0 41.6223C0 42.0324 0.205021 42.6475 0.615063 42.8525ZM16.4017 31.1655V33.6259C16.4017 34.446 17.0167 35.2662 18.0418 35.2662H45.9247V47.9784H17.8368C17.0167 47.9784 16.1967 48.5935 16.1967 49.6187V52.0791L3.8954 41.6223L16.4017 31.1655Z" fill="#575756"/>
</svg>
