<svg width="67" height="49" viewBox="0 0 67 49" fill="none" xmlns="http://www.w3.org/2000/svg">
<g clip-path="url(#clip0_408_631)">
<path d="M44.2246 30.506C44.2246 31.078 44.4144 31.4593 44.9838 31.65V29.5527C44.6042 29.7434 44.2246 29.9341 44.2246 30.506Z" fill="#575756"/>
<path d="M47.6406 37.3699C47.6406 37.3699 47.8304 37.3699 47.8304 37.1793C48.21 36.798 48.5896 36.4166 48.5896 35.8447C48.5896 35.2727 48.21 34.8913 47.6406 34.7007V37.3699Z" fill="#575756"/>
<path d="M40.9972 0.572087C40.8074 0.572087 40.8074 0.572087 40.8074 0.381425C39.6686 0.000102082 38.7195 -0.190559 37.5807 0.190764H37.3909C27.3314 2.86002 14.0453 6.48259 7.40227 8.19855H7.21246L6.83286 8.57987C4.36544 9.15185 2.27762 9.53318 1.32861 9.53318C0.569405 9.53318 0 10.1052 0 10.8678V11.8211V12.0118V23.4515C0 23.8328 0 24.2141 0.189802 24.4048C0.379603 24.5954 0.759207 24.7861 1.32861 24.7861C4.74504 24.7861 7.02266 26.6927 9.67989 28.79C10.2493 29.1713 10.8187 29.7433 11.3881 30.1246C13.8555 32.0312 16.8924 33.9378 21.4476 33.9378C23.3456 33.9378 24.864 33.9378 26.0028 33.9378H31.3173C31.5071 42.3269 37.9603 49.0001 45.7422 49.0001C53.7139 49.0001 60.3569 42.1363 60.3569 33.5565C60.3569 31.8406 60.1671 30.3153 59.5977 28.79C59.5977 28.79 59.5977 28.79 59.7875 28.79C59.9773 28.79 60.1671 28.9806 60.5467 28.9806C61.1161 29.1713 61.6856 28.9806 62.255 28.9806C64.9122 28.5993 67 26.3114 67 23.4515C67 21.9262 66.4306 20.5915 65.4816 19.6382C65.102 19.2569 64.7224 18.8756 64.3428 18.6849L41.3768 0.762748C41.187 0.572087 41.187 0.572087 40.9972 0.572087ZM45.932 47.2841C39.0992 47.2841 33.5949 41.5643 33.0255 34.3192H36.2521C38.1501 34.3192 39.6686 33.1752 40.238 31.4592C40.4278 32.0312 40.6176 32.4126 40.9972 32.9845C41.7564 33.9378 42.8952 34.7005 44.2238 35.0818V36.0351C44.034 35.8445 43.8442 35.6538 43.8442 35.4631C43.4646 35.0818 43.085 34.8912 42.7054 34.8912C42.5156 34.8912 42.136 35.0818 41.9462 35.0818L40.8074 35.8445C40.0482 36.2258 39.8584 36.6071 39.8584 37.1791C39.8584 37.5604 40.0482 37.7511 40.238 37.9417C40.6176 38.5137 40.9972 38.895 41.7564 39.467C42.5156 40.039 43.4646 40.611 44.4136 40.8017V41.3736C44.4136 42.1363 45.1728 42.8989 45.932 42.8989H47.0708C47.83 42.8989 48.5892 42.1363 48.5892 41.3736V40.8017C49.3484 40.611 50.1077 40.2297 50.6771 39.8484C52.0057 38.895 52.7649 37.5604 52.7649 35.8445C52.7649 34.7005 52.5751 33.9378 51.8159 33.1752C51.0567 32.2219 49.9178 31.4592 48.3994 31.2686V31.0779C48.5892 31.0779 48.779 31.2686 48.9688 31.0779C49.3484 31.0779 49.728 30.8873 49.728 30.8873L51.0567 29.934C51.4363 29.7433 51.6261 29.1713 51.6261 28.79C51.6261 28.4087 51.4363 28.0273 51.2465 27.8367C50.4873 26.8834 49.3484 26.1207 48.2096 25.7394V24.9768C48.2096 24.2141 47.4504 23.4515 46.6912 23.4515H45.5524C44.7932 23.4515 44.034 24.2141 44.034 24.9768V25.5487C43.6544 25.7394 43.2748 25.7394 42.8952 25.9301C41.3768 26.6927 40.6176 27.646 40.238 28.5993C39.8584 27.2647 39.0992 26.3114 37.9603 25.7394C37.3909 25.3581 36.8215 25.3581 36.0623 25.3581H35.3031C37.7705 21.7355 41.5666 19.6382 45.7422 19.6382C45.932 19.6382 46.1218 19.6382 46.3116 19.6382L56.1813 26.502L57.3201 27.2647C58.2691 29.1713 58.6487 31.2686 58.6487 33.3659C58.8385 41.183 53.1445 47.2841 45.932 47.2841ZM50.8669 28.218C51.0567 28.4087 51.0567 28.4087 51.0567 28.5993C51.0567 28.79 50.8669 28.9806 50.8669 29.1713L49.3484 30.1246C49.3484 30.1246 49.1586 30.3153 48.9688 30.3153C48.779 30.3153 48.5892 30.3153 48.3994 30.1246C48.2096 29.934 47.83 29.7433 47.6402 29.5526V32.0312C49.3484 32.2219 50.4873 32.7939 51.2465 33.9378C51.6261 34.5098 52.0057 35.2725 52.0057 36.2258C52.0057 37.5604 51.4363 38.7044 50.2975 39.467C49.5382 40.039 48.779 40.2297 47.83 40.4203V41.5643C47.83 41.9456 47.4504 42.327 47.2606 42.327H46.1218C45.7422 42.327 45.5524 41.9456 45.5524 41.5643V40.4203C44.4136 40.2297 43.4646 39.8484 42.5156 39.0857C41.9462 38.7044 41.5666 38.1324 41.187 37.7511C41.187 37.5604 40.9972 37.5604 40.9972 37.3698C40.9972 37.1791 41.187 36.9884 41.3768 36.7978L42.5156 36.0351C42.5156 36.0351 42.7054 35.8445 42.8952 35.8445C43.085 35.8445 43.2748 35.8445 43.4646 36.0351C44.034 36.7978 44.7932 37.1791 45.3626 37.5604V34.3192C43.8442 34.1285 42.7054 33.3659 41.9462 32.4126C41.5666 31.8406 41.3768 31.0779 41.3768 30.3153C41.3768 28.79 42.136 27.646 43.8442 26.6927C44.4136 26.502 44.983 26.3114 45.5524 26.1207V24.7861C45.5524 24.4048 45.932 24.0234 46.1218 24.0234H47.2606C47.6402 24.0234 47.83 24.4048 47.83 24.7861V26.1207C48.9688 26.6927 50.1076 27.2647 50.8669 28.218ZM33.4051 25.9301C33.4051 25.9301 33.2153 25.9301 33.4051 25.9301L26.9518 26.1207C25.813 25.9301 24.864 24.7861 24.864 23.4515C24.864 22.4982 25.2436 21.5448 26.0028 21.1635C26.3824 20.9729 27.3314 20.7822 28.4703 20.4009L29.4193 20.2102C30.5581 20.0196 31.6969 19.6382 32.8357 19.2569H33.0255C37.7705 17.9223 40.9972 16.969 41.7564 16.7783C41.9462 16.7783 42.3258 16.7783 42.5156 16.7783L44.7932 18.3036C39.8584 18.4943 35.6827 21.5448 33.4051 25.9301ZM62.8244 20.4009C62.8244 20.5915 62.8244 20.5915 62.8244 20.4009C63.204 20.5915 63.3938 20.7822 63.5836 20.9729C64.153 21.5448 64.5326 22.3075 64.5326 23.2608C64.5326 24.7861 63.3938 26.1207 61.8754 26.3114H61.6856C61.4958 26.3114 61.3059 26.3114 60.9263 26.3114C60.7365 26.3114 60.7365 26.3114 60.5467 26.3114C60.3569 26.3114 60.3569 26.3114 60.1671 26.1207C60.1671 26.1207 59.9773 26.1207 59.9773 25.9301L57.5099 24.0234L43.4646 14.2997C43.2748 14.2997 43.2748 14.1091 43.085 14.1091C42.5156 13.9184 41.9462 13.9184 41.3768 13.9184H41.187C40.4278 14.1091 35.8725 15.4437 32.2663 16.397H32.0765C30.9377 16.7783 29.7989 16.969 28.8499 17.3503L27.9009 17.541C26.5722 17.9223 25.6232 18.1129 25.4334 18.3036C25.2436 18.3036 25.2436 18.3036 25.0538 18.4943C23.5354 19.4476 22.3966 21.1635 22.3966 23.0701C22.3966 25.7394 24.1048 27.8367 26.5722 28.218H26.762H35.6827C36.4419 28.218 37.0113 28.79 37.0113 29.7433C37.0113 30.5059 36.4419 31.2686 35.6827 31.2686H26.1926C25.0538 31.2686 23.5354 31.2686 21.6374 31.2686C17.8414 31.2686 15.3739 29.7433 13.0963 28.0273C12.5269 27.646 11.9575 27.074 11.3881 26.6927C8.92068 24.7861 6.26346 22.6888 2.65722 22.3075V13.5371V12.2024V12.0118C3.79603 11.8211 5.50425 11.4398 7.40227 10.8678C7.40227 10.8678 7.40227 10.8678 7.59207 10.8678L7.97167 10.6771C14.6147 8.96119 28.0907 5.33862 37.9603 2.66936C38.5297 2.4787 39.0992 2.66936 39.6686 2.86002H39.8584L61.6856 19.8289L62.8244 20.4009Z" fill="#575756"/>
</g>
<defs>
<clipPath id="clip0_408_631">
<rect width="67" height="49" fill="white"/>
</clipPath>
</defs>
</svg>
