<svg width="64" height="46" viewBox="0 0 64 46" fill="none" xmlns="http://www.w3.org/2000/svg">
<g clip-path="url(#clip0_408_640)">
<path d="M16.5281 18.8184L1.92149 30.4134C1.53711 30.6035 1.53711 30.9836 1.53711 31.3638V44.8597C1.53711 45.62 2.11369 46.1903 2.88245 46.1903H17.2969C18.0656 46.1903 18.6422 45.62 18.6422 44.8597V19.7688C18.6422 19.1985 18.45 18.8184 17.8734 18.6283C17.2969 18.4382 16.9125 18.4382 16.5281 18.8184ZM15.9515 43.5291H3.84342V31.9341L15.9515 22.2398V43.5291Z" fill="#575756"/>
<path d="M26.9067 11.215L23.0629 13.496C22.6785 13.6861 22.4863 14.0663 22.4863 14.6365V44.8597C22.4863 45.62 23.0629 46.1902 23.8317 46.1902H38.4383C39.2071 46.1902 39.7836 45.62 39.7836 44.8597V23.3803C39.7836 23.0002 39.5914 22.8101 39.3992 22.4299L28.4443 11.4051C28.0599 11.025 27.4833 10.8349 26.9067 11.215ZM37.0929 43.5291H24.9848V15.2068L27.2911 13.6861L37.0929 23.7605V43.5291Z" fill="#575756"/>
<path d="M53.6221 13.876L44.0125 23.3801C43.8203 23.5702 43.8203 23.7603 43.8203 23.9503V45.2396C43.8203 45.8098 44.2047 46.19 44.7813 46.19H54.3909C54.9675 46.19 55.3518 45.8098 55.3518 45.2396V14.6363C55.3518 14.2561 55.1597 13.876 54.7753 13.876C54.3909 13.6859 54.0065 13.6859 53.6221 13.876ZM53.4299 44.2892H45.55V24.3305L53.4299 16.5371V44.2892Z" fill="#575756"/>
<path d="M61.8856 0.19009C54.9667 5.32232 48.0478 10.2645 41.3211 15.3967C37.285 11.2149 33.249 7.03307 29.213 2.85125C28.8286 2.47108 27.8676 2.281 27.4832 2.66116C18.4502 8.74381 9.60935 14.8265 0.576322 21.0992C-0.961216 22.2397 0.576322 24.7108 2.11386 23.5703C10.7625 17.6777 19.4112 11.7851 27.8676 5.70249C31.9037 9.88431 35.9397 14.0661 39.9757 18.2479C40.3601 18.6281 41.3211 18.8182 41.7055 18.438C49.0088 13.3058 56.1199 7.98348 63.4232 2.85125C64.9607 1.71075 63.4232 -0.760324 61.8856 0.19009Z" fill="#575756"/>
</g>
<defs>
<clipPath id="clip0_408_640">
<rect width="64" height="46" fill="white"/>
</clipPath>
</defs>
</svg>
